<svg width="512" height="512" viewBox="0 0 512 512" fill="none" xmlns="http://www.w3.org/2000/svg">
<rect width="512" height="512" fill="#D9D9D9"/>
<rect x="41" y="269" width="430" height="92" rx="5" fill="#23A6F0"/>
<path d="M52.069 230V162.8H57.925L88.645 215.216H85.573L116.005 162.8H121.861V230H115.045V173.456H116.677L88.645 221.456H85.285L57.061 173.456H58.885V230H52.069ZM143.757 230V162.8H168.909C174.605 162.8 179.501 163.728 183.597 165.584C187.693 167.376 190.829 170 193.005 173.456C195.245 176.848 196.365 180.976 196.365 185.84C196.365 190.576 195.245 194.672 193.005 198.128C190.829 201.52 187.693 204.144 183.597 206C179.501 207.856 174.605 208.784 168.909 208.784H147.693L150.861 205.424V230H143.757ZM150.861 206L147.693 202.544H168.717C175.437 202.544 180.525 201.104 183.981 198.224C187.501 195.28 189.26 191.152 189.26 185.84C189.26 180.464 187.501 176.304 183.981 173.36C180.525 170.416 175.437 168.944 168.717 168.944H147.693L150.861 165.584V206ZM231.191 230.576C226.199 230.576 221.399 229.776 216.791 228.176C212.247 226.512 208.727 224.4 206.231 221.84L209.015 216.368C211.383 218.672 214.551 220.624 218.519 222.224C222.551 223.76 226.775 224.528 231.191 224.528C235.415 224.528 238.839 224.016 241.463 222.992C244.151 221.904 246.103 220.464 247.319 218.672C248.599 216.88 249.239 214.896 249.239 212.72C249.239 210.096 248.471 207.984 246.935 206.384C245.463 204.784 243.511 203.536 241.079 202.64C238.647 201.68 235.959 200.848 233.015 200.144C230.071 199.44 227.127 198.704 224.183 197.936C221.239 197.104 218.519 196.016 216.023 194.672C213.591 193.328 211.607 191.568 210.071 189.392C208.599 187.152 207.863 184.24 207.863 180.656C207.863 177.328 208.727 174.288 210.455 171.536C212.247 168.72 214.967 166.48 218.615 164.816C222.263 163.088 226.935 162.224 232.631 162.224C236.407 162.224 240.151 162.768 243.863 163.856C247.575 164.88 250.775 166.32 253.463 168.176L251.063 173.84C248.183 171.92 245.111 170.512 241.847 169.616C238.647 168.72 235.543 168.272 232.535 168.272C228.503 168.272 225.175 168.816 222.551 169.904C219.927 170.992 217.975 172.464 216.695 174.32C215.479 176.112 214.871 178.16 214.871 180.464C214.871 183.088 215.607 185.2 217.079 186.8C218.615 188.4 220.599 189.648 223.031 190.544C225.527 191.44 228.247 192.24 231.191 192.944C234.135 193.648 237.047 194.416 239.927 195.248C242.871 196.08 245.559 197.168 247.991 198.512C250.487 199.792 252.471 201.52 253.943 203.696C255.479 205.872 256.247 208.72 256.247 212.24C256.247 215.504 255.351 218.544 253.559 221.36C251.767 224.112 249.015 226.352 245.303 228.08C241.655 229.744 236.951 230.576 231.191 230.576ZM283.844 230V168.944H260.228V162.8H314.564V168.944H290.948V230H283.844ZM325.913 230V162.8H331.769L362.489 215.216H359.417L389.849 162.8H395.705V230H388.889V173.456H390.521L362.489 221.456H359.129L330.905 173.456H332.729V230H325.913ZM423.936 192.848H459.456V198.896H423.936V192.848ZM424.704 223.856H465.12V230H417.6V162.8H463.68V168.944H424.704V223.856ZM89.512 350.96C84.264 350.96 79.432 350.096 75.016 348.368C70.6 346.64 66.76 344.24 63.496 341.168C60.232 338.032 57.704 334.384 55.912 330.224C54.12 326 53.224 321.392 53.224 316.4C53.224 311.408 54.12 306.832 55.912 302.672C57.704 298.448 60.232 294.8 63.496 291.728C66.76 288.592 70.6 286.16 75.016 284.432C79.432 282.704 84.232 281.84 89.416 281.84C94.664 281.84 99.464 282.704 103.816 284.432C108.232 286.16 112.072 288.592 115.336 291.728C118.6 294.8 121.128 298.448 122.92 302.672C124.712 306.832 125.608 311.408 125.608 316.4C125.608 321.392 124.712 326 122.92 330.224C121.128 334.448 118.6 338.096 115.336 341.168C112.072 344.24 108.232 346.64 103.816 348.368C99.464 350.096 94.696 350.96 89.512 350.96ZM89.416 340.016C92.808 340.016 95.944 339.44 98.824 338.288C101.704 337.136 104.2 335.504 106.312 333.392C108.424 331.216 110.056 328.72 111.208 325.904C112.424 323.024 113.032 319.856 113.032 316.4C113.032 312.944 112.424 309.808 111.208 306.992C110.056 304.112 108.424 301.616 106.312 299.504C104.2 297.328 101.704 295.664 98.824 294.512C95.944 293.36 92.808 292.784 89.416 292.784C86.024 292.784 82.888 293.36 80.008 294.512C77.192 295.664 74.696 297.328 72.52 299.504C70.408 301.616 68.744 304.112 67.528 306.992C66.376 309.808 65.8 312.944 65.8 316.4C65.8 319.792 66.376 322.928 67.528 325.808C68.744 328.688 70.408 331.216 72.52 333.392C74.632 335.504 77.128 337.136 80.008 338.288C82.888 339.44 86.024 340.016 89.416 340.016ZM166.773 298.16C170.869 298.16 174.517 298.96 177.717 300.56C180.981 302.16 183.541 304.624 185.397 307.952C187.253 311.216 188.181 315.44 188.181 320.624V350H176.181V322.16C176.181 317.616 175.093 314.224 172.917 311.984C170.805 309.744 167.829 308.624 163.989 308.624C161.173 308.624 158.677 309.2 156.501 310.352C154.325 311.504 152.629 313.232 151.413 315.536C150.261 317.776 149.685 320.624 149.685 324.08V350H137.685V298.736H149.109V312.56L147.093 308.336C148.885 305.072 151.477 302.576 154.869 300.848C158.325 299.056 162.293 298.16 166.773 298.16ZM218.187 350V293.36H195.915V282.8H252.939V293.36H230.667V350H218.187ZM259.935 350V298.736H271.359V312.848L270.015 308.72C271.551 305.264 273.951 302.64 277.215 300.848C280.543 299.056 284.671 298.16 289.599 298.16V309.584C289.087 309.456 288.607 309.392 288.159 309.392C287.711 309.328 287.263 309.296 286.815 309.296C282.271 309.296 278.655 310.64 275.967 313.328C273.279 315.952 271.935 319.888 271.935 325.136V350H259.935ZM327.706 350V339.632L327.034 337.424V319.28C327.034 315.76 325.978 313.04 323.866 311.12C321.754 309.136 318.554 308.144 314.266 308.144C311.386 308.144 308.538 308.592 305.722 309.488C302.97 310.384 300.634 311.632 298.714 313.232L294.01 304.496C296.762 302.384 300.026 300.816 303.802 299.792C307.642 298.704 311.61 298.16 315.706 298.16C323.13 298.16 328.858 299.952 332.89 303.536C336.986 307.056 339.034 312.528 339.034 319.952V350H327.706ZM311.578 350.672C307.738 350.672 304.378 350.032 301.498 348.752C298.618 347.408 296.378 345.584 294.778 343.28C293.242 340.912 292.474 338.256 292.474 335.312C292.474 332.432 293.146 329.84 294.49 327.536C295.898 325.232 298.17 323.408 301.306 322.064C304.442 320.72 308.602 320.048 313.786 320.048H328.666V328.016H314.65C310.554 328.016 307.802 328.688 306.394 330.032C304.986 331.312 304.282 332.912 304.282 334.832C304.282 337.008 305.146 338.736 306.874 340.016C308.602 341.296 311.002 341.936 314.074 341.936C317.018 341.936 319.642 341.264 321.946 339.92C324.314 338.576 326.01 336.592 327.034 333.968L329.05 341.168C327.898 344.176 325.818 346.512 322.81 348.176C319.866 349.84 316.122 350.672 311.578 350.672ZM378.048 350.672C372.672 350.672 367.872 349.552 363.648 347.312C359.488 345.008 356.224 341.872 353.856 337.904C351.488 333.936 350.304 329.424 350.304 324.368C350.304 319.248 351.488 314.736 353.856 310.832C356.224 306.864 359.488 303.76 363.648 301.52C367.872 299.28 372.672 298.16 378.048 298.16C383.04 298.16 387.424 299.184 391.2 301.232C395.04 303.216 397.952 306.16 399.936 310.064L390.72 315.44C389.184 313.008 387.296 311.216 385.056 310.064C382.88 308.912 380.512 308.336 377.952 308.336C375.008 308.336 372.352 308.976 369.984 310.256C367.616 311.536 365.76 313.392 364.416 315.824C363.072 318.192 362.4 321.04 362.4 324.368C362.4 327.696 363.072 330.576 364.416 333.008C365.76 335.376 367.616 337.2 369.984 338.48C372.352 339.76 375.008 340.4 377.952 340.4C380.512 340.4 382.88 339.824 385.056 338.672C387.296 337.52 389.184 335.728 390.72 333.296L399.936 338.672C397.952 342.512 395.04 345.488 391.2 347.6C387.424 349.648 383.04 350.672 378.048 350.672ZM419.633 338.576L419.921 323.504L446.705 298.736H461.105L438.353 321.584L432.017 326.864L419.633 338.576ZM409.841 350V278.768H421.841V350H409.841ZM448.529 350L429.809 326.864L437.393 317.264L463.121 350H448.529Z" fill="#222020"/>
</svg>
